<svg xmlns="http://www.w3.org/2000/svg" viewBox="0 0 512 512">
  <defs/>
  <path fill="#ff1a4b" d="M433.531 177.531c0 40.043-28.086 106.04-83.477 196.141-40.503 65.887-81.586 121.479-81.996 122.039L256 512l-12.057-16.289c-.41-.56-41.493-56.152-81.996-122.039-55.391-90.101-83.477-156.098-83.477-196.141C78.469 79.645 158.105 0 256 0s177.531 79.645 177.531 177.531z"/>
  <path fill="#ffdba9" d="M357.517 174.779c0 55.982-45.536 101.527-101.518 101.527S154.482 230.76 154.482 174.779c0-55.972 45.536-101.518 101.517-101.518s101.518 45.546 101.518 101.518z"/>
  <path fill="#d5243e" d="M433.531 177.531c0 40.043-28.086 106.04-83.477 196.141-40.503 65.887-81.586 121.479-81.996 122.039L256 512V0c97.895 0 177.531 79.645 177.531 177.531z"/>
  <path fill="#ffc473" d="M357.517 174.779c0 55.982-45.536 101.527-101.518 101.527V73.261c55.983 0 101.518 45.546 101.518 101.518z"/>
</svg>