<svg xmlns="http://www.w3.org/2000/svg" viewBox="0 0 188.111 188.111">
  <path d="M94.052 0C42.19.001 0 42.194.001 94.055c0 51.862 42.191 94.056 94.051 94.057 51.864-.001 94.059-42.194 94.059-94.056C188.11 42.193 145.916 0 94.052 0zm0 173.111c-43.589-.001-79.051-35.465-79.051-79.057C15 50.464 50.462 15.001 94.052 15c43.593 0 79.059 35.464 79.059 79.056-.001 43.59-35.466 79.054-79.059 79.055z"/>
  <path d="M94.053 50.851c-23.821.002-43.202 19.384-43.202 43.204 0 23.824 19.381 43.206 43.203 43.206 23.823 0 43.205-19.382 43.205-43.205 0-23.824-19.382-43.205-43.206-43.205zm.001 71.41c-15.551 0-28.203-12.653-28.203-28.206 0-15.55 12.652-28.203 28.203-28.204 15.553 0 28.205 12.653 28.205 28.205 0 15.552-12.653 28.205-28.205 28.205z"/>
  <circle cx="94.055" cy="94.056" r="16.229"/>
</svg>